<?xml version="1.0" encoding="UTF-8"?>
<svg id="Layer_2" data-name="Layer 2" xmlns="http://www.w3.org/2000/svg" viewBox="0 0 959.1 184.14">
  <defs>
    <style>
      .cls-1 {
        stroke: #008b20;
        stroke-miterlimit: 10;
        stroke-width: 8px;
      }

      .cls-1, .cls-2 {
        fill: #39b54a;
      }

      .cls-2, .cls-3 {
        stroke-width: 0px;
      }

      .cls-3 {
        fill: #008b20;
      }
    </style>
  </defs>
  <g id="Layer_1-2" data-name="Layer 1">
    <g>
      <g>
        <g>
          <circle class="cls-2" cx="65.18" cy="99.19" r="61.18" transform="translate(-51.05 75.14) rotate(-45)"/>
          <path class="cls-3" d="m65.18,42.01c31.53,0,57.18,25.65,57.18,57.18s-25.65,57.18-57.18,57.18-57.18-25.65-57.18-57.18,25.65-57.18,57.18-57.18m0-8C29.18,34.01,0,63.19,0,99.19s29.18,65.18,65.18,65.18,65.18-29.18,65.18-65.18-29.18-65.18-65.18-65.18h0Z"/>
        </g>
        <g>
          <g>
            <path class="cls-2" d="m65.33,44.36c-11.13,0-20.18-9.05-20.18-20.18s9.05-20.18,20.18-20.18,20.18,9.05,20.18,20.18-9.05,20.18-20.18,20.18Z"/>
            <path class="cls-3" d="m65.33,8c8.92,0,16.18,7.26,16.18,16.18s-7.26,16.18-16.18,16.18-16.18-7.26-16.18-16.18,7.26-16.18,16.18-16.18m0-8c-13.35,0-24.18,10.82-24.18,24.18s10.82,24.18,24.18,24.18,24.18-10.82,24.18-24.18S78.69,0,65.33,0h0Z"/>
          </g>
          <g>
            <path class="cls-2" d="m65.66,29.17c-2.94,0-5.33-2.39-5.33-5.33s2.39-5.34,5.33-5.34,5.34,2.39,5.34,5.34-2.39,5.33-5.34,5.33Z"/>
            <path class="cls-3" d="m65.66,22.5c.74,0,1.34.6,1.34,1.34s-.6,1.34-1.34,1.34-1.34-.6-1.34-1.34.6-1.34,1.34-1.34m0-8c-5.16,0-9.34,4.18-9.34,9.34s4.18,9.34,9.34,9.34,9.34-4.18,9.34-9.34-4.18-9.34-9.34-9.34h0Z"/>
          </g>
        </g>
      </g>
      <g>
        <path class="cls-1" d="m161.92,133.98V58.41h-18.87v-9.48h56.7v9.48h-18.87v75.58h-18.96Z"/>
        <path class="cls-1" d="m228.1,133.98h-18.87v-66.18h18.87v18.96c.74-6.32,2.69-11.06,5.85-14.22,3.16-3.16,7.53-4.74,13.11-4.74h9.39v18.96h-18.87c-2.6,0-4.83.92-6.69,2.77-1.86,1.85-2.79,4.05-2.79,6.62v37.83Z"/>
        <path class="cls-1" d="m303.77,96.15v-9.39c0-2.6-.94-4.83-2.81-6.69-1.88-1.86-4.1-2.79-6.67-2.79h-9.48c-5.58,0-8.71,3.16-9.39,9.48h-9.48c1.45-12.64,7.74-18.96,18.87-18.96h18.96c5.17,0,9.61,1.87,13.31,5.6,3.71,3.74,5.56,8.19,5.56,13.36v47.22h-18.87v-9.48c-.74,6.32-3.9,9.48-9.48,9.48h-9.48c-5.17,0-9.61-1.85-13.31-5.56-3.71-3.71-5.56-8.14-5.56-13.31v-.09c0-5.17,1.86-9.61,5.58-13.31,3.72-3.71,8.15-5.56,13.29-5.56h18.96Zm0,9.48h-9.48c-2.6,0-4.83.92-6.69,2.77-1.86,1.85-2.79,4.05-2.79,6.62v.09c0,2.54.92,4.74,2.77,6.6,1.85,1.86,4.08,2.79,6.71,2.79s4.87-.93,6.71-2.79c1.85-1.86,2.77-4.06,2.77-6.6v-9.48Z"/>
        <path class="cls-1" d="m388.74,86.76h-9.39c-.83-6.32-3.81-9.48-8.95-9.48-3.34,0-5.85.66-7.53,1.97-1.68,1.31-2.53,3.27-2.53,5.87s4.59,6.53,13.78,11.43c7.47,4.02,11.78,7.35,12.91,9.99,1.14,2.64,1.71,5.46,1.71,8.44,0,5.26-1.85,9.74-5.56,13.45s-8.14,5.56-13.31,5.56h-9.48c-12.58,0-18.87-6.29-18.87-18.87h9.48c.74,6.29,3.69,9.44,8.86,9.44,3.34,0,5.85-.67,7.53-1.99,1.68-1.33,2.52-3.29,2.52-5.89s-4.58-6.47-13.73-11.43c-7.5-3.99-11.82-7.31-12.96-9.97-1.14-2.66-1.71-5.46-1.71-8.42,0-5.29,1.86-9.78,5.58-13.49,3.72-3.71,8.15-5.56,13.29-5.56h9.48c11.81,0,18.1,6.32,18.87,18.96Z"/>
        <path class="cls-1" d="m407.69,133.98V48.93h18.87v28.35c.38-3.19,1.37-5.57,2.95-7.13,1.58-1.56,3.76-2.35,6.53-2.35h9.48c5.17,0,9.61,1.87,13.31,5.6,3.71,3.74,5.56,8.19,5.56,13.36v47.22h-18.87v-47.22c0-2.6-.94-4.83-2.81-6.69-1.88-1.86-4.1-2.79-6.67-2.79s-4.83.93-6.69,2.79c-1.86,1.86-2.79,4.09-2.79,6.69v47.22h-18.87Z"/>
        <path class="cls-1" d="m558.18,67.8h-9.39c-.83-6.32-3.81-9.48-8.95-9.48-3.31,0-5.8.8-7.49,2.39s-2.53,3.97-2.53,7.13c0,2.36.93,4.58,2.79,6.65l20.02,22.5c3.69,4.13,5.54,8.58,5.54,13.33v4.78c0,5.11-1.85,9.53-5.54,13.27s-8.14,5.6-13.33,5.6h-9.48c-6.26,0-10.97-1.58-14.13-4.74-3.16-3.16-4.74-7.87-4.74-14.13h9.48c-.06.65-.09,1.17-.09,1.55,0,2.57.99,4.52,2.97,5.85s4.15,1.99,6.51,1.99c3.37,0,5.79-.81,7.27-2.44,1.48-1.62,2.21-3.99,2.21-7.09,0-2.39-.93-4.61-2.79-6.65l-20.02-22.42c-3.69-4.1-5.54-8.55-5.54-13.33v-4.78c0-5.14,1.84-9.57,5.54-13.29,3.69-3.72,8.14-5.58,13.33-5.58h9.48c11.81,0,18.1,6.29,18.87,18.87Z"/>
        <path class="cls-1" d="m624.36,86.76h-9.39c-.74-6.32-3.9-9.48-9.48-9.48-2.6,0-4.83.93-6.69,2.79-1.86,1.86-2.79,4.09-2.79,6.69v28.35c0,2.54.92,4.74,2.77,6.6,1.84,1.86,4.08,2.79,6.71,2.79,5.58,0,8.74-3.13,9.48-9.39h9.39c-.77,12.58-7.06,18.87-18.87,18.87h-9.48c-5.17,0-9.61-1.85-13.31-5.56-3.71-3.71-5.56-8.14-5.56-13.31v-28.35c0-5.23,1.86-9.69,5.58-13.4,3.72-3.71,8.15-5.56,13.29-5.56h9.48c11.87,0,18.16,6.32,18.87,18.96Z"/>
        <path class="cls-1" d="m643.32,133.98V48.93h18.87v28.35c.38-3.19,1.37-5.57,2.95-7.13,1.58-1.56,3.76-2.35,6.53-2.35h9.48c5.17,0,9.61,1.87,13.31,5.6,3.71,3.74,5.56,8.19,5.56,13.36v47.22h-18.87v-47.22c0-2.6-.94-4.83-2.81-6.69-1.88-1.86-4.1-2.79-6.67-2.79s-4.83.93-6.69,2.79c-1.86,1.86-2.79,4.09-2.79,6.69v47.22h-18.87Z"/>
        <path class="cls-1" d="m737.77,67.8h18.96c5.17,0,9.61,1.87,13.31,5.6,3.71,3.74,5.56,8.19,5.56,13.36v28.35c0,5.11-1.85,9.53-5.56,13.27s-8.14,5.6-13.31,5.6h-18.96c-5.17,0-9.61-1.85-13.31-5.56-3.71-3.71-5.56-8.14-5.56-13.31v-28.35c0-5.23,1.86-9.69,5.58-13.4,3.72-3.71,8.15-5.56,13.29-5.56Zm0,18.96v28.35c0,2.54.92,4.74,2.77,6.6,1.84,1.86,4.08,2.79,6.71,2.79s4.87-.93,6.71-2.79c1.84-1.86,2.77-4.06,2.77-6.6v-28.35c0-2.6-.94-4.83-2.81-6.69-1.88-1.86-4.1-2.79-6.67-2.79s-4.83.93-6.69,2.79c-1.86,1.86-2.79,4.09-2.79,6.69Z"/>
        <path class="cls-1" d="m794.47,133.98V48.93h18.87v85.06h-18.87Z"/>
        <path class="cls-1" d="m870.14,96.15v-9.39c0-2.6-.94-4.83-2.81-6.69-1.88-1.86-4.1-2.79-6.67-2.79h-9.48c-5.58,0-8.71,3.16-9.39,9.48h-9.48c1.45-12.64,7.74-18.96,18.87-18.96h18.96c5.17,0,9.61,1.87,13.31,5.6,3.71,3.74,5.56,8.19,5.56,13.36v47.22h-18.87v-9.48c-.74,6.32-3.9,9.48-9.48,9.48h-9.48c-5.17,0-9.61-1.85-13.31-5.56-3.71-3.71-5.56-8.14-5.56-13.31v-.09c0-5.17,1.86-9.61,5.58-13.31,3.72-3.71,8.15-5.56,13.29-5.56h18.96Zm0,9.48h-9.48c-2.6,0-4.83.92-6.69,2.77-1.86,1.85-2.79,4.05-2.79,6.62v.09c0,2.54.92,4.74,2.77,6.6,1.84,1.86,4.08,2.79,6.71,2.79s4.87-.93,6.71-2.79c1.84-1.86,2.77-4.06,2.77-6.6v-9.48Z"/>
        <path class="cls-1" d="m926.75,133.98h-18.87v-66.18h18.87v18.96c.74-6.32,2.69-11.06,5.85-14.22s7.53-4.74,13.11-4.74h9.39v18.96h-18.87c-2.6,0-4.83.92-6.69,2.77-1.86,1.85-2.79,4.05-2.79,6.62v37.83Z"/>
      </g>
      <path class="cls-1" d="m27.22,90.68c-2.4,24.19,17.32,43.57,37.3,42.72,20-.84,37.98-21.85,33.45-45.76"/>
    </g>
  </g>
</svg>